<mxfile host="app.diagrams.net" agent="Mozilla/5.0 (X11; Linux x86_64) AppleWebKit/537.36 (KHTML, like Gecko) Chrome/136.0.0.0 Safari/537.36" version="27.1.4" pages="2">
  <diagram id="1zcTAVt1k4KSup7FvAfL" name="Roadmap">
    <mxGraphModel dx="6194" dy="3885" grid="1" gridSize="10" guides="1" tooltips="1" connect="1" arrows="1" fold="1" page="1" pageScale="1" pageWidth="3300" pageHeight="2339" math="0" shadow="0">
      <root>
        <mxCell id="3D7FDG2aXA9G618_Kong-0" />
        <mxCell id="3D7FDG2aXA9G618_Kong-1" parent="3D7FDG2aXA9G618_Kong-0" />
        <mxCell id="wGroBH12Sy7-OgBsN0fJ-2" value="" style="shape=rect;fillColor=#fff2cc;strokeColor=none;fontSize=24;html=1;whiteSpace=wrap;align=left;verticalAlign=top;spacing=5;rounded=0;" parent="3D7FDG2aXA9G618_Kong-1" vertex="1">
          <mxGeometry x="-2500" y="-930" width="1610" height="180" as="geometry" />
        </mxCell>
        <mxCell id="wGroBH12Sy7-OgBsN0fJ-4" value="" style="shape=rect;fillColor=#fff2cc;strokeColor=none;fontSize=24;html=1;whiteSpace=wrap;align=left;verticalAlign=top;spacing=5;rounded=0;" parent="3D7FDG2aXA9G618_Kong-1" vertex="1">
          <mxGeometry x="-2500" y="-1146.8" width="1610" height="196.8" as="geometry" />
        </mxCell>
        <mxCell id="wGroBH12Sy7-OgBsN0fJ-5" value="Введение в эксплуатацию CRM" style="shape=rect;fillColor=#ffe6cc;strokeColor=#d79b00;fontSize=18;html=1;whiteSpace=wrap;align=left;verticalAlign=top;spacing=5;rounded=0;" parent="3D7FDG2aXA9G618_Kong-1" vertex="1">
          <mxGeometry x="-2480" y="-1130" width="390" height="40" as="geometry" />
        </mxCell>
        <mxCell id="wGroBH12Sy7-OgBsN0fJ-6" value="&lt;span style=&quot;text-align: left;&quot;&gt;Подключить кафку&lt;/span&gt;" style="shape=rect;fillColor=#ffe6cc;strokeColor=#d79b00;fontSize=18;html=1;whiteSpace=wrap;align=center;verticalAlign=top;spacing=5;rounded=0;" parent="3D7FDG2aXA9G618_Kong-1" vertex="1">
          <mxGeometry x="-1885" y="-1060" width="315" height="40" as="geometry" />
        </mxCell>
        <mxCell id="wGroBH12Sy7-OgBsN0fJ-7" value="Колл-центр" style="rounded=0;whiteSpace=wrap;html=1;fillColor=#f5f5f5;fontColor=#333333;strokeColor=#666666;fontSize=18;" parent="3D7FDG2aXA9G618_Kong-1" vertex="1">
          <mxGeometry x="-2630" y="-1146.8" width="120" height="196.8" as="geometry" />
        </mxCell>
        <mxCell id="wGroBH12Sy7-OgBsN0fJ-8" value="Кафка" style="rounded=0;whiteSpace=wrap;html=1;fillColor=#f5f5f5;fontColor=#333333;strokeColor=#666666;fontSize=18;" parent="3D7FDG2aXA9G618_Kong-1" vertex="1">
          <mxGeometry x="-2630" y="-930" width="120" height="180" as="geometry" />
        </mxCell>
        <mxCell id="wGroBH12Sy7-OgBsN0fJ-9" value="Q2" style="shape=step;perimeter=stepPerimeter;whiteSpace=wrap;html=1;fixedSize=1;size=10;fillColor=#f5f5f5;strokeColor=#666666;fontSize=18;fontStyle=1;align=center;rounded=0;fontColor=#333333;" parent="3D7FDG2aXA9G618_Kong-1" vertex="1">
          <mxGeometry x="-2500" y="-1240" width="1610" height="74.4" as="geometry" />
        </mxCell>
        <mxCell id="wGroBH12Sy7-OgBsN0fJ-11" value="Создать топики" style="shape=rect;fillColor=#ffe6cc;strokeColor=#d79b00;fontSize=18;html=1;whiteSpace=wrap;align=center;verticalAlign=top;spacing=5;rounded=0;" parent="3D7FDG2aXA9G618_Kong-1" vertex="1">
          <mxGeometry x="-2200" y="-830" width="480" height="60" as="geometry" />
        </mxCell>
        <mxCell id="wGroBH12Sy7-OgBsN0fJ-15" value="Развернуть кафку" style="shape=rect;fillColor=#ffe6cc;strokeColor=#d79b00;fontSize=18;html=1;whiteSpace=wrap;align=center;verticalAlign=top;spacing=5;rounded=0;" parent="3D7FDG2aXA9G618_Kong-1" vertex="1">
          <mxGeometry x="-2480" y="-920" width="280" height="60" as="geometry" />
        </mxCell>
        <mxCell id="_A0maDX7g1caD5l3b77f-0" value="" style="shape=rect;fillColor=#fff2cc;strokeColor=none;fontSize=24;html=1;whiteSpace=wrap;align=left;verticalAlign=top;spacing=5;rounded=0;" vertex="1" parent="3D7FDG2aXA9G618_Kong-1">
          <mxGeometry x="-2500" y="-730" width="1610" height="180" as="geometry" />
        </mxCell>
        <mxCell id="_A0maDX7g1caD5l3b77f-1" value="АБС" style="rounded=0;whiteSpace=wrap;html=1;fillColor=#f5f5f5;fontColor=#333333;strokeColor=#666666;fontSize=18;" vertex="1" parent="3D7FDG2aXA9G618_Kong-1">
          <mxGeometry x="-2630" y="-730" width="120" height="180" as="geometry" />
        </mxCell>
        <mxCell id="_A0maDX7g1caD5l3b77f-2" value="Подключение кафки" style="shape=rect;fillColor=#ffe6cc;strokeColor=#d79b00;fontSize=18;html=1;whiteSpace=wrap;align=center;verticalAlign=top;spacing=5;rounded=0;" vertex="1" parent="3D7FDG2aXA9G618_Kong-1">
          <mxGeometry x="-1885" y="-670" width="545" height="60" as="geometry" />
        </mxCell>
        <mxCell id="_A0maDX7g1caD5l3b77f-4" value="" style="shape=rect;fillColor=#fff2cc;strokeColor=none;fontSize=24;html=1;whiteSpace=wrap;align=left;verticalAlign=top;spacing=5;rounded=0;" vertex="1" parent="3D7FDG2aXA9G618_Kong-1">
          <mxGeometry x="-2500" y="-530" width="1610" height="180" as="geometry" />
        </mxCell>
        <mxCell id="_A0maDX7g1caD5l3b77f-5" value="Интернет- банк" style="rounded=0;whiteSpace=wrap;html=1;fillColor=#f5f5f5;fontColor=#333333;strokeColor=#666666;fontSize=18;" vertex="1" parent="3D7FDG2aXA9G618_Kong-1">
          <mxGeometry x="-2630" y="-530" width="120" height="180" as="geometry" />
        </mxCell>
        <mxCell id="_A0maDX7g1caD5l3b77f-6" value="подключение кафки" style="shape=rect;fillColor=#ffe6cc;strokeColor=#d79b00;fontSize=18;html=1;whiteSpace=wrap;align=center;verticalAlign=top;spacing=5;rounded=0;" vertex="1" parent="3D7FDG2aXA9G618_Kong-1">
          <mxGeometry x="-1680" y="-440" width="480" height="40" as="geometry" />
        </mxCell>
        <mxCell id="_A0maDX7g1caD5l3b77f-7" value="Доработки в клиенте для открытия депозитов" style="shape=rect;fillColor=#ffe6cc;strokeColor=#d79b00;fontSize=18;html=1;whiteSpace=wrap;align=center;verticalAlign=top;spacing=5;rounded=0;" vertex="1" parent="3D7FDG2aXA9G618_Kong-1">
          <mxGeometry x="-1990" y="-520" width="420" height="60" as="geometry" />
        </mxCell>
        <mxCell id="_A0maDX7g1caD5l3b77f-8" value="" style="shape=rect;fillColor=#fff2cc;strokeColor=none;fontSize=24;html=1;whiteSpace=wrap;align=left;verticalAlign=top;spacing=5;rounded=0;" vertex="1" parent="3D7FDG2aXA9G618_Kong-1">
          <mxGeometry x="-2500" y="-330" width="1610" height="180" as="geometry" />
        </mxCell>
        <mxCell id="_A0maDX7g1caD5l3b77f-9" value="Сайт" style="rounded=0;whiteSpace=wrap;html=1;fillColor=#f5f5f5;fontColor=#333333;strokeColor=#666666;fontSize=18;" vertex="1" parent="3D7FDG2aXA9G618_Kong-1">
          <mxGeometry x="-2630" y="-330" width="120" height="180" as="geometry" />
        </mxCell>
        <mxCell id="_A0maDX7g1caD5l3b77f-10" value="подключение кафки" style="shape=rect;fillColor=#ffe6cc;strokeColor=#d79b00;fontSize=18;html=1;whiteSpace=wrap;align=center;verticalAlign=top;spacing=5;rounded=0;" vertex="1" parent="3D7FDG2aXA9G618_Kong-1">
          <mxGeometry x="-1680" y="-230" width="480" height="60" as="geometry" />
        </mxCell>
        <mxCell id="_A0maDX7g1caD5l3b77f-11" value="доработка сайта для открытия депозитов" style="shape=rect;fillColor=#ffe6cc;strokeColor=#d79b00;fontSize=18;html=1;whiteSpace=wrap;align=center;verticalAlign=top;spacing=5;rounded=0;" vertex="1" parent="3D7FDG2aXA9G618_Kong-1">
          <mxGeometry x="-1990" y="-310" width="280" height="60" as="geometry" />
        </mxCell>
        <mxCell id="_A0maDX7g1caD5l3b77f-13" value="&lt;span style=&quot;text-align: left;&quot;&gt;Доработки с СМС&lt;/span&gt;" style="shape=rect;fillColor=#ffe6cc;strokeColor=#d79b00;fontSize=18;html=1;whiteSpace=wrap;align=center;verticalAlign=top;spacing=5;rounded=0;" vertex="1" parent="3D7FDG2aXA9G618_Kong-1">
          <mxGeometry x="-1950" y="-400" width="340" height="40" as="geometry" />
        </mxCell>
      </root>
    </mxGraphModel>
  </diagram>
  <diagram id="6faDem5PxRRIMGQd80wj" name="Roadmap_change">
    <mxGraphModel grid="1" page="1" gridSize="10" guides="1" tooltips="1" connect="1" arrows="1" fold="1" pageScale="1" pageWidth="3300" pageHeight="2339" math="0" shadow="0">
      <root>
        <mxCell id="0" />
        <mxCell id="1" parent="0" />
        <mxCell id="QlwB00z0-otb056kdUWZ-19" value="" style="shape=rect;fillColor=#fff2cc;strokeColor=none;fontSize=24;html=1;whiteSpace=wrap;align=left;verticalAlign=top;spacing=5;rounded=0;" vertex="1" parent="1">
          <mxGeometry x="-2500" y="-530" width="1620" height="190" as="geometry" />
        </mxCell>
        <mxCell id="QlwB00z0-otb056kdUWZ-18" value="" style="shape=rect;fillColor=#fff2cc;strokeColor=none;fontSize=24;html=1;whiteSpace=wrap;align=left;verticalAlign=top;spacing=5;rounded=0;" vertex="1" parent="1">
          <mxGeometry x="-2500" y="-730" width="1620" height="180" as="geometry" />
        </mxCell>
        <mxCell id="QlwB00z0-otb056kdUWZ-17" value="" style="shape=rect;fillColor=#fff2cc;strokeColor=none;fontSize=24;html=1;whiteSpace=wrap;align=left;verticalAlign=top;spacing=5;rounded=0;" vertex="1" parent="1">
          <mxGeometry x="-2500" y="-930" width="1610" height="180" as="geometry" />
        </mxCell>
        <mxCell id="QlwB00z0-otb056kdUWZ-3" value="" style="shape=rect;fillColor=#fff2cc;strokeColor=none;fontSize=24;html=1;whiteSpace=wrap;align=left;verticalAlign=top;spacing=5;rounded=0;" vertex="1" parent="1">
          <mxGeometry x="-2500" y="-1146.8" width="1610" height="196.8" as="geometry" />
        </mxCell>
        <mxCell id="QlwB00z0-otb056kdUWZ-4" value="T1 - API сервиса интеграции депозитов АБС" style="shape=rect;fillColor=#ffe6cc;strokeColor=#d79b00;fontSize=18;html=1;whiteSpace=wrap;align=left;verticalAlign=top;spacing=5;rounded=0;" vertex="1" parent="1">
          <mxGeometry x="-2480" y="-1120" width="390" height="50" as="geometry" />
        </mxCell>
        <mxCell id="QlwB00z0-otb056kdUWZ-5" value="T2 - Передача файлов на SFTP-сервер" style="shape=rect;fillColor=#ffe6cc;strokeColor=#d79b00;fontSize=18;html=1;whiteSpace=wrap;align=center;verticalAlign=top;spacing=5;rounded=0;" vertex="1" parent="1">
          <mxGeometry x="-2120" y="-1040" width="550" height="60" as="geometry" />
        </mxCell>
        <mxCell id="QlwB00z0-otb056kdUWZ-6" value="АБС&lt;div&gt;Сервис интеграции депозитов&lt;/div&gt;" style="rounded=0;whiteSpace=wrap;html=1;fillColor=#f5f5f5;fontColor=#333333;strokeColor=#666666;fontSize=18;" vertex="1" parent="1">
          <mxGeometry x="-2630" y="-1146.8" width="120" height="196.8" as="geometry" />
        </mxCell>
        <mxCell id="QlwB00z0-otb056kdUWZ-7" value="SFTP" style="rounded=0;whiteSpace=wrap;html=1;fillColor=#f5f5f5;fontColor=#333333;strokeColor=#666666;fontSize=18;" vertex="1" parent="1">
          <mxGeometry x="-2630" y="-930" width="120" height="180" as="geometry" />
        </mxCell>
        <mxCell id="QlwB00z0-otb056kdUWZ-8" value="Q2" style="shape=step;perimeter=stepPerimeter;whiteSpace=wrap;html=1;fixedSize=1;size=10;fillColor=#f5f5f5;strokeColor=#666666;fontSize=18;fontStyle=1;align=center;rounded=0;fontColor=#333333;" vertex="1" parent="1">
          <mxGeometry x="-2500" y="-1240" width="1610" height="74.4" as="geometry" />
        </mxCell>
        <mxCell id="QlwB00z0-otb056kdUWZ-11" value="T5 - Вывод ставок пользователю системы колл-центра" style="shape=rect;fillColor=#ffe6cc;strokeColor=#d79b00;fontSize=18;html=1;whiteSpace=wrap;align=center;verticalAlign=top;spacing=5;rounded=0;" vertex="1" parent="1">
          <mxGeometry x="-1860" y="-640" width="940" height="50" as="geometry" />
        </mxCell>
        <mxCell id="QlwB00z0-otb056kdUWZ-12" value="T4 - Получение ставок через API интеграции АБС" style="shape=rect;fillColor=#ffe6cc;strokeColor=#d79b00;fontSize=18;html=1;whiteSpace=wrap;align=center;verticalAlign=top;spacing=5;rounded=0;" vertex="1" parent="1">
          <mxGeometry x="-2060" y="-720" width="480" height="60" as="geometry" />
        </mxCell>
        <mxCell id="QlwB00z0-otb056kdUWZ-13" value="T6 - Получение файлов с SFTP для операторов партнера" style="shape=rect;fillColor=#ffe6cc;strokeColor=#d79b00;fontSize=18;html=1;whiteSpace=wrap;align=center;verticalAlign=top;spacing=5;rounded=0;" vertex="1" parent="1">
          <mxGeometry x="-1560" y="-470" width="640" height="50" as="geometry" />
        </mxCell>
        <mxCell id="QlwB00z0-otb056kdUWZ-14" value="Система колл-центра" style="rounded=0;whiteSpace=wrap;html=1;fillColor=#f5f5f5;fontColor=#333333;strokeColor=#666666;fontSize=18;" vertex="1" parent="1">
          <mxGeometry x="-2630" y="-730" width="120" height="180" as="geometry" />
        </mxCell>
        <mxCell id="QlwB00z0-otb056kdUWZ-15" value="Система&amp;nbsp; партнерского колл-центра" style="rounded=0;whiteSpace=wrap;html=1;fillColor=#f5f5f5;fontColor=#333333;strokeColor=#666666;fontSize=18;" vertex="1" parent="1">
          <mxGeometry x="-2630" y="-530" width="120" height="190" as="geometry" />
        </mxCell>
        <mxCell id="QlwB00z0-otb056kdUWZ-16" value="T3 - Развернуть SFTP сервер" style="shape=rect;fillColor=#ffe6cc;strokeColor=#d79b00;fontSize=18;html=1;whiteSpace=wrap;align=center;verticalAlign=top;spacing=5;rounded=0;" vertex="1" parent="1">
          <mxGeometry x="-2400" y="-910" width="280" height="60" as="geometry" />
        </mxCell>
      </root>
    </mxGraphModel>
  </diagram>
</mxfile>
